Coordinates
version=1
nRows=16
nColumns=40
inDegrees=yes

Units are S.I. units (second, meters, Newtons, ...)
Angles are in degrees.

endheader
time	pelvis_tilt	pelvis_list	pelvis_rotation	pelvis_tx	pelvis_ty	pelvis_tz	hip_flexion_r	hip_adduction_r	hip_rotation_r	knee_angle_r	knee_angle_r_beta	ankle_angle_r	subtalar_angle_r	mtp_angle_r	hip_flexion_l	hip_adduction_l	hip_rotation_l	knee_angle_l	knee_angle_l_beta	ankle_angle_l	subtalar_angle_l	mtp_angle_l	lumbar_extension	lumbar_bending	lumbar_rotation	arm_flex_r	arm_add_r	arm_rot_r	elbow_flex_r	pro_sup_r	wrist_flex_r	wrist_dev_r	arm_flex_l	arm_add_l	arm_rot_l	elbow_flex_l	pro_sup_l	wrist_flex_l	wrist_dev_l
     36.95000000	     -6.25613235	     -5.81363142	      0.74866514	      1.05606642	      0.92534063	      0.53796840	     17.99966440	      4.69578165	    -13.69142808	     19.02148425	     19.02148425	      9.05385039	     -0.68788383	     -1.45915342	     36.63004867	    -14.88006599	      5.07810154	     60.64207474	     60.64207474	     11.26084374	    -18.73957045	     14.06606318	    -14.03831617	      5.61088496	      2.70638563	     24.36734650	    -17.84932330	      0.48498666	     53.76362089	     45.75405394	      0.00000000	      0.00000000	      3.33838458	     -8.55645088	     -8.11103219	     31.80886807	     45.80457414	      0.00000000	      0.00000000
     36.96178571	     -6.27660335	     -5.93204795	      0.97062079	      1.05377253	      0.92551616	      0.53803939	     17.27101475	      4.86495446	    -13.88303680	     18.47784699	     18.47784699	      9.36292408	     -0.33018970	     -1.57620669	     37.88770508	    -14.87848262	      5.09105141	     58.09131657	     58.09131657	     11.08209462	    -18.58190218	     14.27890706	    -13.97117442	      5.71046965	      2.36361429	     26.66164445	    -17.57274177	      0.48672536	     55.95372346	     45.68399810	      0.00000000	      0.00000000	      1.76145135	     -8.65656215	     -8.07129994	     30.46348333	     45.79053732	      0.00000000	      0.00000000
     36.97357143	     -6.26339603	     -6.05758764	      1.20908354	      1.05156262	      0.92566683	      0.53806597	     16.49146576	      5.04554321	    -14.09182043	     17.90439287	     17.90439287	      9.66052123	      0.02940750	     -1.76936433	     38.83559880	    -14.83856415	      5.07028169	     55.16463915	     55.16463915	     10.67394087	    -18.39423456	     14.17894691	    -13.98240925	      5.82110125	      2.13292930	     28.83354824	    -17.47945805	      0.66395567	     58.65898360	     45.58948153	      0.00000000	      0.00000000	      0.23662634	     -8.68727263	     -8.08282569	     29.34221009	     45.78502327	      0.00000000	      0.00000000
     36.98535714	     -6.26843173	     -6.24532247	      1.43357128	      1.04940327	      0.92563471	      0.53803043	     15.75384768	      5.25869954	    -14.47267528	     17.35965589	     17.35965589	      9.85364786	      0.56616660	     -2.36907753	     39.59173104	    -14.87774500	      4.97557999	     51.95174066	     51.95174066	      9.76362764	    -18.05764542	     12.98078460	    -14.00488214	      6.04946839	      2.38993188	     30.25653555	    -18.16153903	      1.46828615	     62.96804710	     45.41179463	      0.00000000	      0.00000000	     -1.00468654	     -8.60029918	     -8.21978609	     28.32780918	     45.82798812	      0.00000000	      0.00000000
     36.99714286	     -6.35966578	     -6.44909030	      1.59012998	      1.04722900	      0.92543134	      0.53800899	     15.28242846	      5.50578515	    -14.57120864	     17.12107032	     17.12107032	     10.18492144	      0.65078834	     -2.50795222	     40.29104536	    -14.90042183	      4.87179656	     48.66472244	     48.66472244	      9.46909279	    -17.33668451	     13.40137737	    -13.81433567	      6.22025867	      2.99134678	     32.25522659	    -18.56998419	      1.18912683	     64.05408335	     45.39458386	      0.00000000	      0.00000000	     -2.17937100	     -8.54136249	     -8.23584513	     27.83878821	     45.81368639	      0.00000000	      0.00000000
     37.00892857	     -6.14508778	     -6.62332989	      1.83527755	      1.04552924	      0.92590804	      0.53769712	     13.92301381	      5.77395750	    -15.08332397	     15.85805201	     15.85805201	     10.14521745	      1.73948684	     -3.27131522	     40.32090537	    -14.78863914	      4.82288707	     44.96178270	     44.96178270	      8.25262441	    -16.99310294	     11.85533850	    -14.17518615	      6.45555751	      2.93268632	     33.52504661	    -18.77184050	      1.51277599	     69.48292997	     45.20984079	      0.00000000	      0.00000000	     -3.56673312	     -8.52726648	     -8.18380755	     27.16149510	     45.83128064	      0.00000000	      0.00000000
     37.02071429	     -6.05485540	     -6.87433805	      2.02177821	      1.04379993	      0.92608375	      0.53737838	     12.88431274	      6.13097619	    -15.36540240	     14.93618280	     14.93618280	     10.33302890	      2.36427361	     -3.34731094	     40.48688208	    -14.79043710	      4.70659311	     41.44080474	     41.44080474	      7.90198658	    -15.92868051	     12.21561351	    -14.22577801	      6.75272185	      2.88732013	     35.59995978	    -18.37374501	      1.28404343	     71.55767195	     45.15966643	      0.00000000	      0.00000000	     -4.96082910	     -8.52219750	     -8.11064239	     26.57482956	     45.80400166	      0.00000000	      0.00000000
     37.03250000	     -5.99090199	     -7.22358461	      2.21010604	      1.04218489	      0.92614565	      0.53697160	     11.80742605	      6.57200376	    -15.86797704	     13.89736339	     13.89736339	     10.43888523	      3.44197976	     -3.55779552	     40.62566108	    -14.87445790	      4.62236248	     37.97516145	     37.97516145	      7.56338379	    -14.51109399	     12.40877364	    -14.27187303	      7.14036594	      2.88942207	     37.44828466	    -18.06944073	      1.17351581	     74.23266644	     45.08599581	      0.00000000	      0.00000000	     -6.40824333	     -8.46441420	     -8.01814407	     26.35590492	     45.77047582	      0.00000000	      0.00000000
     37.04428571	     -5.93955672	     -7.47515169	      2.33414391	      1.04069904	      0.92620271	      0.53646127	     10.72006765	      6.92641230	    -16.27546286	     12.83850162	     12.83850162	     10.57201154	      4.48602884	     -3.72876831	     40.62448424	    -14.91960200	      4.27938609	     34.53301804	     34.53301804	      7.21570985	    -12.91916593	     12.76967578	    -14.27690456	      7.43114075	      3.00195408	     39.15913437	    -17.75253330	      1.09888757	     76.72019759	     45.01690656	      0.00000000	      0.00000000	     -7.80645815	     -8.43731330	     -7.92836869	     26.26363223	     45.73405570	      0.00000000	      0.00000000
     37.05607143	     -5.83681711	     -7.82860148	      2.48071874	      1.03942394	      0.92621201	      0.53584030	      9.48296785	      7.40099853	    -16.87088175	     11.61977196	     11.61977196	     10.64783681	      5.79161369	     -3.92042482	     40.57616615	    -15.05767784	      3.91210164	     31.31546495	     31.31546495	      6.86283877	    -11.19252154	     13.15644977	    -14.29604837	      7.86597461	      3.05075341	     40.75547744	    -17.35830662	      1.06423464	     79.60066533	     44.93469902	      0.00000000	      0.00000000	     -9.26394348	     -8.35794974	     -7.78282729	     26.41290718	     45.68491906	      0.00000000	      0.00000000
     37.06785714	     -5.80042091	     -8.21629273	      2.59765862	      1.03819290	      0.92595576	      0.53505544	      8.34127461	      7.86970386	    -17.64491357	     10.45105761	     10.45105761	     10.61138169	      7.59769030	     -4.55174518	     40.56710158	    -15.21366706	      3.52963710	     28.34411954	     28.34411954	      6.54922879	     -9.38719675	     13.41442845	    -14.37753584	      8.30264806	      3.68253720	     41.65279430	    -17.74259198	      0.80219255	     83.95264395	     44.82678583	      0.00000000	      0.00000000	    -10.89390735	     -8.42431802	     -6.92647986	     28.06757602	     45.52374736	      0.00000000	      0.00000000
     37.07964286	     -5.72528113	     -8.52028951	      2.65862206	      1.03714138	      0.92579203	      0.53424372	      7.11255696	      8.33213429	    -17.96810847	      9.21476362	      9.21476362	     10.65770326	      8.70712787	     -4.53612373	     40.38860687	    -15.30488197	      3.03345851	     25.57714444	     25.57714444	      6.20488213	     -7.87430774	     14.09844435	    -14.36616022	      8.65422893	      3.61379961	     43.36384751	    -16.90329364	      0.80051936	     86.29532810	     44.76509185	      0.00000000	      0.00000000	    -12.26091185	     -8.31768764	     -6.52013499	     27.94092237	     45.44233482	      0.00000000	      0.00000000
     37.09142857	     -5.67464894	     -8.84414921	      2.68112640	      1.03620873	      0.92540502	      0.53330178	      5.94926695	      8.75912406	    -18.58795684	      8.09404974	      8.09404974	     10.72511280	     10.38097874	     -4.70911777	     40.29916311	    -15.45551385	      2.40383287	     23.34245066	     23.34245066	      6.07203160	     -6.35561608	     15.12876034	    -14.36934933	      9.02617415	      4.08264096	     44.45773940	    -16.81228510	      0.65713921	     89.89297214	     44.69672195	      0.00000000	      0.00000000	    -13.94362218	     -8.53146196	     -4.63713999	     29.64264449	     45.15637653	      0.00000000	      0.00000000
     37.10321429	     -5.62610090	     -9.11080612	      2.65610342	      1.03542155	      0.92493156	      0.53230885	      4.81381196	      9.16429087	    -18.73772110	      7.03964674	      7.03964674	     10.85449379	     11.35792965	     -4.61739283	     40.10536411	    -15.53792555	      1.82419502	     21.41963302	     21.41963302	      5.71549854	     -5.38484876	     15.79320369	    -14.28730067	      9.33267456	      3.98855781	     46.04568335	    -15.87628974	      0.81249015	     91.99314017	     44.64041076	      0.00000000	      0.00000000	    -15.21464122	     -8.37248951	     -4.11829698	     29.50126767	     45.07140110	      0.00000000	      0.00000000
     37.11500000	     -5.58644147	     -9.35099007	      2.57363487	      1.03473451	      0.92432758	      0.53121520	      3.76947686	      9.49470687	    -18.88303498	      6.17586814	      6.17586814	     11.05148506	     12.36538180	     -4.53321081	     39.90390880	    -15.63575869	      1.17920402	     19.99679692	     19.99679692	      5.40781818	     -4.63985027	     16.39278927	    -14.20524458	      9.59437679	      4.02425084	     47.42919547	    -15.11829645	      1.04329175	     94.30999278	     44.57543488	      0.00000000	      0.00000000	    -16.47642208	     -8.23482586	     -3.59992025	     29.74063068	     44.98611458	      0.00000000	      0.00000000
     37.12678571	     -5.55717196	     -9.54291159	      2.43924105	      1.03418083	      0.92359420	      0.53007248	      2.85039592	      9.73235410	    -18.92667432	      5.57023200	      5.57023200	     11.34776046	     13.17630751	     -4.46064980	     39.65994757	    -15.70574583	      0.61324607	     19.04783940	     19.04783940	      5.13205641	     -4.25106913	     16.87543248	    -14.09519901	      9.78278689	      4.10169392	     48.71540115	    -14.37999441	      1.31187790	     96.51813215	     44.51093027	      0.00000000	      0.00000000	    -17.64914906	     -8.08013209	     -3.14344787	     29.96944003	     44.90981652	      0.00000000	      0.00000000
